<svg width="108" height="108" viewBox="0 0 108 108" fill="none" xmlns="http://www.w3.org/2000/svg">
<path d="M36.8534 90.4351C36.0248 90.4351 35.2526 90.2289 34.537 89.8164C33.8214 89.4039 33.2752 88.8226 32.8986 88.0726L24.085 72.4351H30.6387L35.1585 81.4351H45.554V76.9351H37.8703L33.3506 67.9351H21.5992L15.1585 56.6851C15.0078 56.3101 14.876 55.9351 14.763 55.5601C14.65 55.1851 14.5935 54.8101 14.5935 54.4351C14.5935 54.1351 14.7818 53.3851 15.1585 52.1851L21.5992 40.9351H33.3506L37.8703 31.9351H45.554V27.4351H35.1585L30.6387 36.4351H24.085L32.8986 20.7976C33.2752 20.0476 33.8214 19.4664 34.537 19.0539C35.2526 18.6414 36.0248 18.4351 36.8534 18.4351H47.8138C49.0944 18.4351 50.1679 18.8664 51.0342 19.7289C51.9005 20.5914 52.3336 21.6601 52.3336 22.9351V40.9351H45.554L41.0342 45.4351H52.3336V58.9351H42.3901L37.8703 49.9351H27.4749L22.9551 54.4351H35.1585L39.6783 63.4351H52.3336V85.9351C52.3336 87.2101 51.9005 88.2789 51.0342 89.1414C50.1679 90.0039 49.0944 90.4351 47.8138 90.4351H36.8534ZM61.3732 90.4351C60.0926 90.4351 59.0191 90.0039 58.1528 89.1414C57.2865 88.2789 56.8534 87.2101 56.8534 85.9351V63.4351H69.5088L74.0285 54.4351H86.2319L81.7122 49.9351H71.3167L66.7969 58.9351H56.8534V45.4351H68.1528L63.6331 40.9351H56.8534V22.9351C56.8534 21.6601 57.2865 20.5914 58.1528 19.7289C59.0191 18.8664 60.0926 18.4351 61.3732 18.4351H72.3336C73.1622 18.4351 73.9344 18.6414 74.65 19.0539C75.3656 19.4664 75.9118 20.0476 76.2884 20.7976L85.102 36.4351H78.5483L74.0285 27.4351H63.6331V31.9351H71.3167L75.8364 40.9351H87.5879L94.0285 52.1851C94.1792 52.5601 94.311 52.9351 94.424 53.3101C94.537 53.6851 94.5935 54.0601 94.5935 54.4351C94.5935 54.7351 94.4052 55.4851 94.0285 56.6851L87.5879 67.9351H75.8364L71.3167 76.9351H63.6331V81.4351H74.0285L78.5483 72.4351H85.102L76.2884 88.0726C75.9118 88.8226 75.3656 89.4039 74.65 89.8164C73.9344 90.2289 73.1622 90.4351 72.3336 90.4351H61.3732Z" fill="#FF8EB2"/>
</svg>
