<svg width="160" height="140" viewBox="0 0 160 140" fill="none" xmlns="http://www.w3.org/2000/svg">
<g filter="url(#filter0_d_26_180)">
<path d="M67.51 1.68301L13.5819 95.0892L84.5015 136.035L138.43 42.6284L67.51 1.68301Z" fill="white" shape-rendering="crispEdges"/>
<path d="M67.51 1.68301L13.5819 95.0892L84.5015 136.035L138.43 42.6284L67.51 1.68301Z" stroke="black" stroke-opacity="0.01" shape-rendering="crispEdges"/>
</g>
<path d="M10.3063 69.4967C8.13316 69.4967 6.27963 69.0493 4.74567 68.1545C3.21172 67.2597 2.04527 66.0613 1.24634 64.5593C0.479361 63.0573 0.0958722 61.3955 0.0958722 59.5739C0.0958722 58.9987 0.351531 58.7111 0.86285 58.7111C1.34221 58.7111 1.58189 58.9667 1.58189 59.4781C1.58189 62.1305 2.33289 64.2237 3.83489 65.7577C5.36884 67.2597 7.52597 68.0107 10.3063 68.0107C12.6072 68.0107 14.4447 67.4514 15.8189 66.3329C17.1931 65.2144 17.8802 63.6165 17.8802 61.5393C17.8802 59.3662 17.1611 57.6885 15.723 56.506C14.285 55.2916 12.1119 54.285 9.20373 53.4861C7.47803 53.0386 5.99201 52.5433 4.74567 52C3.49934 51.4248 2.39681 50.546 1.43808 49.3636C0.479361 48.1492 0 46.5833 0 44.6658C0 42.9082 0.447404 41.3582 1.34221 40.016C2.23702 38.6418 3.43542 37.5872 4.93742 36.8522C6.43942 36.1172 8.06924 35.7497 9.8269 35.7497C11.8722 35.7497 13.5819 36.1651 14.9561 36.996C16.3622 37.8269 17.4008 38.9295 18.0719 40.3036C18.743 41.6458 19.0786 43.1159 19.0786 44.7137C19.0786 44.9055 19.0147 45.0813 18.8868 45.241C18.791 45.3689 18.6152 45.4328 18.3595 45.4328C17.8482 45.4328 17.5925 45.1931 17.5925 44.7137C17.5925 42.5087 16.8575 40.7191 15.3875 39.3449C13.9494 37.9388 12.0959 37.2357 9.8269 37.2357C8.1012 37.2357 6.5992 37.5713 5.32091 38.2424C4.07457 38.8815 3.11585 39.7763 2.44474 40.9268C1.80559 42.0453 1.48602 43.2916 1.48602 44.6658C1.48602 46.1998 1.86951 47.4461 2.63649 48.4048C3.43542 49.3316 4.4261 50.0666 5.60852 50.6099C6.79095 51.1212 8.38882 51.6805 10.4021 52.2877C12.0959 52.799 13.5499 53.3582 14.7643 53.9654C16.0107 54.5726 17.0812 55.4994 17.976 56.7457C18.9028 57.9601 19.3662 59.542 19.3662 61.4914C19.3662 63.9521 18.5193 65.9015 16.8256 67.3396C15.1638 68.7777 12.9907 69.4967 10.3063 69.4967Z" fill="black"/>
<path d="M46.5894 67.9628C46.909 67.9947 47.1327 68.0586 47.2605 68.1545C47.4203 68.2184 47.5002 68.3942 47.5002 68.6818C47.5002 69.1931 47.2605 69.4488 46.7811 69.4488C45.5028 69.4488 44.5761 69.1931 44.0008 68.6818C43.4576 68.1705 43.0581 67.2277 42.8024 65.8536C42.0674 67.1319 41.0128 68.1385 39.6387 68.8735C38.2965 69.5766 36.6506 69.9281 34.7012 69.9281C31.9529 69.9281 29.7958 69.289 28.2299 68.0107C26.664 66.7324 25.5934 65.2144 25.0182 63.4568C24.4429 61.6991 24.1553 59.9734 24.1553 58.2797C24.1553 56.2983 24.5388 54.3809 25.3058 52.5273C26.0727 50.6418 27.2552 49.0919 28.853 47.8775C30.4829 46.6632 32.4962 46.056 34.893 46.056C36.8743 46.056 38.5042 46.4394 39.7825 47.2064C41.0927 47.9734 42.1473 49.1398 42.9463 50.7058L43.4256 47.2064C43.4895 46.8869 43.5534 46.6632 43.6174 46.5353C43.7132 46.4075 43.889 46.3436 44.1447 46.3436C44.4323 46.3436 44.656 46.4235 44.8158 46.5833C45.0075 46.7111 45.0874 46.8709 45.0554 47.0626C44.7678 48.5327 44.5441 50.3063 44.3843 52.3835C44.2565 53.8536 44.1926 55.8349 44.1926 58.3276V61.5873C44.1926 63.4088 44.2405 64.7351 44.3364 65.566C44.4323 66.3968 44.64 66.9881 44.9596 67.3396C45.3111 67.6911 45.8544 67.8988 46.5894 67.9628ZM34.4616 68.3942C36.7305 68.3942 38.648 67.8189 40.2139 66.6685C41.8118 65.4861 42.6267 63.7763 42.6586 61.5393C42.6906 59.9095 42.7066 58.04 42.7066 55.9308C42.7066 53.7577 42.2432 52.048 41.3164 50.8016C40.4216 49.5553 39.367 48.7084 38.1526 48.261C36.9702 47.7817 35.8837 47.542 34.893 47.542C32.7199 47.542 30.9303 48.1492 29.5241 49.3636C28.15 50.546 27.1593 51.9681 26.5521 53.6299C25.9449 55.2916 25.6413 56.8416 25.6413 58.2797C25.6413 59.6858 25.881 61.1558 26.3604 62.6898C26.8397 64.2237 27.7345 65.5659 29.0448 66.7164C30.355 67.8349 32.1606 68.3942 34.4616 68.3942Z" fill="black"/>
<path d="M63.4831 34.1199C65.2727 34.1199 66.6948 34.743 67.7494 35.9894C68.836 37.2038 69.3793 38.9934 69.3793 41.3582C69.3793 41.9335 69.1396 42.2211 68.6602 42.2211C68.3407 42.2211 68.1329 42.1572 68.0371 42.0293C67.9412 41.8695 67.8932 41.6618 67.8932 41.4062C67.8932 37.5393 66.4711 35.6059 63.6269 35.6059C61.5817 35.6059 60.2075 36.4048 59.5044 38.0027C58.8014 39.5686 58.4498 42.0293 58.4498 45.3849L58.5457 51.0413C60.4631 50.9774 61.9811 50.9454 63.0996 50.9454C63.4512 50.9454 63.6908 51.0094 63.8187 51.1372C63.9785 51.2331 64.0584 51.4088 64.0584 51.6645C64.0584 52.1438 63.8027 52.3835 63.2914 52.3835L58.5936 52.4315L58.6416 54.8283C58.7694 60.8363 58.8333 65.4861 58.8333 68.7777C58.8333 69.3209 58.5936 69.5926 58.1143 69.5926C57.603 69.5926 57.3473 69.3209 57.3473 68.7777L57.0597 52.5273L53.1289 52.6711C52.5856 52.6711 52.314 52.4315 52.314 51.9521C52.314 51.4408 52.6016 51.1851 53.1769 51.1851C53.8799 51.1851 55.1582 51.1532 57.0118 51.0893L56.9638 45.3849C56.9638 41.6139 57.4432 38.8016 58.4019 36.9481C59.3926 35.0626 61.0863 34.1199 63.4831 34.1199ZM74.844 41.0706C74.2687 41.0706 73.7734 40.8789 73.358 40.4954C72.9425 40.0799 72.7348 39.5846 72.7348 39.0094C72.7348 38.4022 72.9425 37.8908 73.358 37.4754C73.7734 37.028 74.3007 36.8043 74.9399 36.8043C75.547 36.8043 76.0424 37.012 76.4259 37.4275C76.8094 37.811 77.0011 38.3223 77.0011 38.9614C77.0011 39.6006 76.7774 40.1119 76.33 40.4954C75.9145 40.8789 75.4192 41.0706 74.844 41.0706ZM74.077 69.305C73.5657 69.305 73.31 69.0653 73.31 68.5859L73.7894 46.3915C73.7894 45.7524 74.045 45.4328 74.5564 45.4328C74.812 45.4328 75.0038 45.5127 75.1316 45.6725C75.2594 45.8003 75.3233 46.04 75.3233 46.3915L74.796 68.538C74.796 69.0493 74.5564 69.305 74.077 69.305Z" fill="black"/>
<path d="M93.9817 45.1452C96.1229 45.1452 97.6888 45.7843 98.6795 47.0626C99.7021 48.309 100.213 49.779 100.213 51.4727C100.213 53.1345 99.766 54.3968 98.8712 55.2597C97.9764 56.0906 96.9058 56.506 95.6595 56.506C95.276 56.506 95.0044 56.4581 94.8446 56.3622C94.7167 56.2344 94.6528 56.0426 94.6528 55.787C94.6528 55.5313 94.7167 55.3556 94.8446 55.2597C94.9724 55.1319 95.1641 55.052 95.4198 55.02C96.3785 54.9241 97.1615 54.6685 97.7687 54.253C98.4078 53.8056 98.7274 52.8948 98.7274 51.5207C98.7274 50.2424 98.3759 49.1079 97.6728 48.1172C96.9697 47.1265 95.7234 46.6312 93.9338 46.6312C91.6009 46.6312 89.8592 47.6698 88.7088 49.747C87.5583 51.8243 86.8392 54.7963 86.5516 58.6632C86.4238 60.3889 86.3599 62.9135 86.3599 66.2371V68.9215C86.3599 69.5926 86.1042 69.9281 85.5929 69.9281C85.3372 69.9281 85.1455 69.8482 85.0177 69.6885C84.9218 69.5606 84.8739 69.3209 84.8739 68.9694L84.778 58.759C84.746 55.4035 84.5063 51.265 84.0589 46.3436L83.9631 45.289V45.1931C83.9631 44.9694 84.043 44.7936 84.2028 44.6658C84.3625 44.538 84.5543 44.4741 84.778 44.4741C85.2573 44.4741 85.497 44.7457 85.497 45.289L85.9764 53.9175C86.296 50.8815 87.1748 48.6605 88.6129 47.2544C90.0829 45.8482 91.8725 45.1452 93.9817 45.1452Z" fill="black"/>
<path d="M127.435 67.9628C127.754 67.9947 127.978 68.0586 128.106 68.1545C128.266 68.2184 128.346 68.3942 128.346 68.6818C128.346 69.1931 128.106 69.4488 127.626 69.4488C126.348 69.4488 125.421 69.1931 124.846 68.6818C124.303 68.1705 123.903 67.2277 123.648 65.8536C122.913 67.1319 121.858 68.1385 120.484 68.8735C119.142 69.5766 117.496 69.9281 115.547 69.9281C112.798 69.9281 110.641 69.289 109.075 68.0107C107.509 66.7324 106.439 65.2144 105.864 63.4568C105.288 61.6991 105.001 59.9734 105.001 58.2797C105.001 56.2983 105.384 54.3809 106.151 52.5273C106.918 50.6418 108.101 49.0919 109.698 47.8775C111.328 46.6632 113.342 46.056 115.738 46.056C117.72 46.056 119.35 46.4394 120.628 47.2064C121.938 47.9734 122.993 49.1398 123.792 50.7058L124.271 47.2064C124.335 46.8869 124.399 46.6632 124.463 46.5353C124.559 46.4075 124.734 46.3436 124.99 46.3436C125.278 46.3436 125.501 46.4235 125.661 46.5833C125.853 46.7111 125.933 46.8709 125.901 47.0626C125.613 48.5327 125.389 50.3063 125.23 52.3835C125.102 53.8536 125.038 55.8349 125.038 58.3276V61.5873C125.038 63.4088 125.086 64.7351 125.182 65.566C125.278 66.3968 125.485 66.9881 125.805 67.3396C126.156 67.6911 126.7 67.8988 127.435 67.9628ZM115.307 68.3942C117.576 68.3942 119.493 67.8189 121.059 66.6685C122.657 65.4861 123.472 63.7763 123.504 61.5393C123.536 59.9095 123.552 58.04 123.552 55.9308C123.552 53.7577 123.089 52.048 122.162 50.8016C121.267 49.5553 120.212 48.7084 118.998 48.261C117.816 47.7817 116.729 47.542 115.738 47.542C113.565 47.542 111.776 48.1492 110.369 49.3636C108.995 50.546 108.005 51.9681 107.397 53.6299C106.79 55.2916 106.487 56.8416 106.487 58.2797C106.487 59.6858 106.726 61.1558 107.206 62.6898C107.685 64.2237 108.58 65.5659 109.89 66.7164C111.2 67.8349 113.006 68.3942 115.307 68.3942Z" fill="black"/>
<path d="M71.9689 107.072C71.9689 105.713 72.5697 104.79 73.7712 104.304C74.1431 104.161 74.5364 104.09 74.9513 104.09C75.3661 104.09 75.7523 104.161 76.1099 104.304C76.4675 104.476 76.775 104.69 77.0325 104.948C77.5903 105.52 77.8692 106.228 77.8692 107.072C77.8692 108.388 77.2828 109.282 76.1099 109.754C75.7523 109.897 75.3661 109.968 74.9513 109.968C74.5221 109.968 74.1216 109.897 73.7497 109.754C73.3921 109.611 73.0846 109.411 72.8271 109.153C72.255 108.61 71.9689 107.916 71.9689 107.072Z" fill="black"/>
<path d="M102.05 106.789C102.388 106.789 102.557 107.186 102.557 107.979C102.557 108.564 102.46 108.967 102.264 109.188C102.069 109.409 101.92 109.526 101.816 109.539C101.725 109.539 101.543 109.552 101.27 109.578C101.01 109.617 100.672 109.656 100.255 109.695C99.1241 109.799 98.2464 109.851 97.6222 109.851C96.985 109.851 96.5754 109.825 96.3934 109.773C96.2113 109.734 96.0553 109.656 95.9253 109.539C95.6782 109.331 95.4311 108.883 95.1841 108.193C93.5976 109.351 91.7316 109.929 89.586 109.929C87.0634 109.929 85.1193 108.98 83.754 107.082C82.4406 105.261 81.7839 102.752 81.7839 99.5526V99.4941C81.7839 96.3733 82.7527 93.9091 84.6902 92.1016C86.4587 90.4502 88.7408 89.6245 91.5366 89.6245C92.8499 89.6245 93.9942 89.7545 94.9695 90.0146V82.0564H91.5366C91.1595 82.0564 90.9059 81.7378 90.7759 81.1007C90.7499 80.9186 90.7369 80.7236 90.7369 80.5155C90.7369 79.8914 90.9124 79.5143 91.2635 79.3842C91.6146 79.2542 92.0762 79.1437 92.6484 79.0526C93.2205 78.9616 93.8187 78.8901 94.4429 78.8381C95.6392 78.734 96.79 78.6755 97.8953 78.6625H97.9148C98.4609 78.6625 98.747 79.2152 98.773 80.3205V106.789H102.05ZM90.1127 106.926C91.7901 106.926 93.4091 106.275 94.9695 104.975V93.8961C93.8902 93.0509 92.6679 92.6283 91.3025 92.6283C88.8709 92.6283 87.1999 93.8051 86.2897 96.1587C85.9516 97.056 85.7825 98.1873 85.7825 99.5526C85.7825 100.918 85.9191 102.069 86.1921 103.005C86.4652 103.928 86.8098 104.683 87.2259 105.268C88.0321 106.373 88.9944 106.926 90.1127 106.926Z" fill="black"/>
<path d="M112.641 109.929C111.25 109.929 110.028 109.669 108.974 109.149C107.921 108.629 107.03 107.901 106.302 106.965C104.846 105.079 104.117 102.608 104.117 99.5526C104.117 96.3538 105.106 93.8571 107.082 92.0626C108.877 90.4372 111.139 89.6245 113.87 89.6245H113.929C116.477 89.6245 118.525 90.5932 120.073 92.5308C121.555 94.3772 122.296 96.7699 122.296 99.7087C122.296 102.986 121.386 105.534 119.566 107.355C117.849 109.071 115.541 109.929 112.641 109.929ZM109.813 93.9936C109.319 94.5138 108.909 95.229 108.584 96.1392C108.272 97.0365 108.116 98.1418 108.116 99.4551C108.116 100.781 108.24 101.906 108.487 102.83C108.747 103.74 109.098 104.494 109.54 105.092C110.437 106.314 111.679 106.926 113.265 106.926C114.904 106.926 116.172 106.21 117.069 104.78C117.888 103.48 118.298 101.776 118.298 99.6697C118.285 96.1457 117.251 93.9351 115.196 93.0379C114.572 92.7648 113.942 92.6283 113.304 92.6283C112.654 92.6283 112.03 92.7258 111.432 92.9209C110.847 93.1159 110.307 93.4735 109.813 93.9936Z" fill="black"/>
<path d="M136.672 92.3747H134.858C133.505 92.3747 132.342 92.8883 131.366 93.9156C130.118 95.229 129.494 97.121 129.494 99.5917C129.494 103.207 130.502 105.495 132.517 106.458C133.154 106.77 133.804 106.926 134.468 106.926C135.131 106.926 135.729 106.854 136.262 106.711C136.795 106.568 137.315 106.379 137.823 106.145C138.343 105.924 138.837 105.671 139.305 105.385L140.69 104.546C140.742 104.507 140.833 104.487 140.963 104.487C141.08 104.487 141.229 104.565 141.411 104.722C141.594 104.865 141.763 105.04 141.919 105.248C142.257 105.742 142.426 106.152 142.426 106.477C142.426 106.802 142.354 107.023 142.211 107.14C139.728 109 137.023 109.929 134.097 109.929C131.379 109.929 129.253 108.987 127.719 107.101C126.236 105.281 125.495 102.778 125.495 99.5917C125.495 96.4708 126.438 94.0001 128.323 92.1797C130.092 90.4892 132.348 89.6375 135.092 89.6245C138.031 89.6375 140.066 90.2811 141.197 91.5555C141.626 92.0496 141.841 92.5763 141.841 93.1354C141.841 93.6946 141.776 94.1367 141.646 94.4618C141.49 94.7869 141.294 95.0664 141.06 95.3005C140.54 95.8076 139.91 96.0612 139.168 96.0612C138.427 96.0612 137.797 95.8076 137.276 95.3005C136.756 94.8064 136.496 94.3122 136.496 93.8181C136.496 93.324 136.555 92.8428 136.672 92.3747Z" fill="black"/>
<path d="M150.247 106.926H152.471C154.278 106.926 155.494 106.373 156.118 105.268C156.301 104.93 156.392 104.559 156.392 104.156C156.392 103.753 156.294 103.408 156.099 103.122C155.917 102.823 155.624 102.55 155.221 102.303C154.61 101.926 153.589 101.523 152.159 101.094C150.742 100.651 149.662 100.274 148.921 99.9623C148.18 99.6372 147.536 99.2536 146.99 98.8114C145.872 97.8752 145.313 96.5878 145.313 94.9494C145.313 92.5438 146.658 90.9248 149.35 90.0926C150.364 89.7805 151.366 89.6245 152.354 89.6245C153.329 89.6245 154.233 89.6895 155.065 89.8195C155.923 89.9496 156.691 90.1706 157.367 90.4827C158.914 91.1979 159.688 92.2187 159.688 93.545V93.6426C159.688 94.3707 159.434 94.9884 158.927 95.4955C158.433 95.9897 157.796 96.2433 157.016 96.2563C155.793 96.2563 154.961 95.7231 154.519 94.6568C154.389 94.3317 154.324 94.0652 154.324 93.8571C154.324 93.6491 154.402 93.1549 154.558 92.3747H152.627C151.574 92.3747 150.794 92.5568 150.286 92.9209C149.363 93.558 148.902 94.2602 148.902 95.0274C148.902 96.0417 149.812 96.8609 151.632 97.4851L153.115 97.9922C155.624 98.8244 157.237 99.5331 157.952 100.118C158.667 100.703 159.187 101.341 159.512 102.03C159.837 102.719 160 103.506 160 104.39C160 105.287 159.824 106.061 159.473 106.711C159.135 107.374 158.654 107.94 158.03 108.408C156.691 109.422 154.948 109.929 152.803 109.929C150.904 109.929 149.201 109.643 147.692 109.071C146.574 108.655 145.781 108.057 145.313 107.277C145.078 106.887 144.961 106.464 144.961 106.009C144.961 105.567 145.026 105.183 145.157 104.858C145.313 104.52 145.508 104.234 145.742 104C146.249 103.506 146.886 103.259 147.653 103.259C148.407 103.259 149.045 103.512 149.565 104.019C150.085 104.513 150.345 105.073 150.345 105.697V105.716C150.332 106.366 150.299 106.77 150.247 106.926Z" fill="black"/>
<path d="M71.7815 39.1623C71.7815 37.8034 72.3823 36.8808 73.5838 36.3945C73.9557 36.2514 74.349 36.1799 74.7638 36.1799C75.1787 36.1799 75.5649 36.2514 75.9225 36.3945C76.2801 36.5661 76.5876 36.7807 76.8451 37.0381C77.4029 37.6103 77.6818 38.3183 77.6818 39.1623C77.6818 40.4782 77.0954 41.3722 75.9225 41.8442C75.5649 41.9873 75.1787 42.0588 74.7638 42.0588C74.3347 42.0588 73.9342 41.9873 73.5623 41.8442C73.2047 41.7012 72.8972 41.5009 72.6397 41.2435C72.0676 40.6999 71.7815 40.0062 71.7815 39.1623Z" fill="#7700FF"/>
<path d="M71.7815 107.072C71.7815 105.713 72.3823 104.79 73.5838 104.304C73.9557 104.161 74.349 104.089 74.7638 104.089C75.1787 104.089 75.5649 104.161 75.9225 104.304C76.2801 104.476 76.5876 104.69 76.8451 104.948C77.4029 105.52 77.6818 106.228 77.6818 107.072C77.6818 108.388 77.0954 109.282 75.9225 109.754C75.5649 109.897 75.1787 109.968 74.7638 109.968C74.3347 109.968 73.9342 109.897 73.5623 109.754C73.2047 109.611 72.8972 109.41 72.6397 109.153C72.0676 108.609 71.7815 107.916 71.7815 107.072Z" fill="#7700FF"/>
<defs>
<filter id="filter0_d_26_180" x="10.8989" y="0" width="130.214" height="139.718" filterUnits="userSpaceOnUse" color-interpolation-filters="sRGB">
<feFlood flood-opacity="0" result="BackgroundImageFix"/>
<feColorMatrix in="SourceAlpha" type="matrix" values="0 0 0 0 0 0 0 0 0 0 0 0 0 0 0 0 0 0 127 0" result="hardAlpha"/>
<feOffset dy="1"/>
<feGaussianBlur stdDeviation="1"/>
<feComposite in2="hardAlpha" operator="out"/>
<feColorMatrix type="matrix" values="0 0 0 0 0 0 0 0 0 0 0 0 0 0 0 0 0 0 0.14 0"/>
<feBlend mode="normal" in2="BackgroundImageFix" result="effect1_dropShadow_26_180"/>
<feBlend mode="normal" in="SourceGraphic" in2="effect1_dropShadow_26_180" result="shape"/>
</filter>
</defs>
</svg>
