<svg width="160" height="160" viewBox="0 0 160 160" fill="none" xmlns="http://www.w3.org/2000/svg">
<circle cx="80" cy="80" r="80" fill="white"/>
<g filter="url(#filter0_d_11_19)">
<path d="M70.8519 25L27.0353 100.893L84.6574 134.161L128.474 58.2682L70.8519 25Z" fill="white" shape-rendering="crispEdges"/>
<path d="M70.8519 25L27.0353 100.893L84.6574 134.161L128.474 58.2682L70.8519 25Z" stroke="black" stroke-opacity="0.01" shape-rendering="crispEdges"/>
</g>
<path d="M24.3738 80.0985C22.6082 80.0985 21.1022 79.735 19.8559 79.008C18.6095 78.281 17.6618 77.3073 17.0127 76.0869C16.3895 74.8665 16.0779 73.5163 16.0779 72.0363C16.0779 71.5689 16.2856 71.3352 16.7011 71.3352C17.0905 71.3352 17.2853 71.5429 17.2853 71.9584C17.2853 74.1135 17.8955 75.8143 19.1158 77.0606C20.3622 78.281 22.1148 78.8912 24.3738 78.8912C26.2433 78.8912 27.7364 78.4368 28.8529 77.528C29.9694 76.6192 30.5276 75.3209 30.5276 73.6332C30.5276 71.8675 29.9434 70.5043 28.775 69.5436C27.6065 68.5569 25.8409 67.739 23.478 67.0899C22.0759 66.7264 20.8685 66.3239 19.8559 65.8825C18.8432 65.4151 17.9474 64.7011 17.1684 63.7403C16.3895 62.7537 16 61.4814 16 59.9234C16 58.4953 16.3635 57.236 17.0905 56.1455C17.8176 55.029 18.7913 54.1721 20.0117 53.5749C21.232 52.9777 22.5563 52.6791 23.9844 52.6791C25.6461 52.6791 27.0353 53.0166 28.1518 53.6917C29.2943 54.3668 30.1382 55.2626 30.6834 56.3792C31.2287 57.4697 31.5013 58.6641 31.5013 59.9624C31.5013 60.1182 31.4494 60.261 31.3455 60.3908C31.2676 60.4947 31.1248 60.5466 30.9171 60.5466C30.5017 60.5466 30.2939 60.3519 30.2939 59.9624C30.2939 58.1708 29.6967 56.7167 28.5023 55.6002C27.3339 54.4577 25.8279 53.8865 23.9844 53.8865C22.5822 53.8865 21.3619 54.1591 20.3232 54.7044C19.3106 55.2237 18.5316 55.9507 17.9864 56.8855C17.467 57.7943 17.2074 58.8069 17.2074 59.9234C17.2074 61.1698 17.519 62.1824 18.1421 62.9614C18.7913 63.7144 19.5962 64.3116 20.5569 64.753C21.5176 65.1684 22.8159 65.6228 24.4517 66.1162C25.8279 66.5316 27.0093 66.986 27.996 67.4794C29.0087 67.9727 29.8785 68.7257 30.6055 69.7384C31.3585 70.725 31.735 72.0103 31.735 73.5942C31.735 75.5935 31.0469 77.1774 29.6708 78.3459C28.3206 79.5143 26.5549 80.0985 24.3738 80.0985Z" fill="black"/>
<path d="M53.8539 78.8522C54.1135 78.8782 54.2953 78.9301 54.3992 79.008C54.529 79.0599 54.5939 79.2027 54.5939 79.4364C54.5939 79.8519 54.3992 80.0596 54.0097 80.0596C52.9711 80.0596 52.2181 79.8519 51.7507 79.4364C51.3093 79.021 50.9847 78.255 50.777 77.1385C50.1798 78.1771 49.3229 78.995 48.2064 79.5922C47.1159 80.1635 45.7786 80.4491 44.1948 80.4491C41.9617 80.4491 40.2091 79.9298 38.9368 78.8912C37.6645 77.8525 36.7946 76.6192 36.3272 75.1911C35.8599 73.763 35.6262 72.3609 35.6262 70.9847C35.6262 69.3748 35.9378 67.8169 36.5609 66.3109C37.1841 64.779 38.1448 63.5196 39.4431 62.533C40.7673 61.5463 42.4031 61.0529 44.3506 61.0529C45.9604 61.0529 47.2846 61.3645 48.3233 61.9877C49.3878 62.6109 50.2447 63.5586 50.8938 64.8309L51.2833 61.9877C51.3352 61.728 51.3872 61.5463 51.4391 61.4424C51.517 61.3385 51.6598 61.2866 51.8675 61.2866C52.1012 61.2866 52.283 61.3515 52.4128 61.4814C52.5686 61.5852 52.6335 61.715 52.6075 61.8708C52.3739 63.0652 52.1921 64.5063 52.0623 66.1941C51.9584 67.3885 51.9065 68.9983 51.9065 71.0236V73.6721C51.9065 75.1521 51.9454 76.2297 52.0233 76.9048C52.1012 77.5799 52.27 78.0603 52.5296 78.3459C52.8153 78.6315 53.2567 78.8003 53.8539 78.8522ZM44 79.2027C45.8436 79.2027 47.4015 78.7354 48.6738 77.8006C49.9721 76.8399 50.6342 75.4507 50.6601 73.6332C50.6861 72.3089 50.6991 70.79 50.6991 69.0762C50.6991 67.3106 50.3226 65.9214 49.5696 64.9088C48.8426 63.8961 47.9857 63.2081 46.999 62.8445C46.0383 62.4551 45.1555 62.2603 44.3506 62.2603C42.5849 62.2603 41.1308 62.7537 39.9884 63.7403C38.8719 64.7011 38.0669 65.8565 37.5736 67.2067C37.0802 68.5569 36.8336 69.8162 36.8336 70.9847C36.8336 72.1272 37.0283 73.3216 37.4178 74.5679C37.8073 75.8143 38.5343 76.9048 39.5989 77.8396C40.6635 78.7483 42.1305 79.2027 44 79.2027Z" fill="black"/>
<path d="M67.58 51.3549C69.0341 51.3549 70.1896 51.8612 71.0464 52.8738C71.9292 53.8605 72.3707 55.3146 72.3707 57.236C72.3707 57.7034 72.1759 57.9371 71.7864 57.9371C71.5268 57.9371 71.358 57.8852 71.2801 57.7813C71.2022 57.6515 71.1633 57.4827 71.1633 57.275C71.1633 54.1332 70.0078 52.5622 67.6969 52.5622C66.0351 52.5622 64.9186 53.2114 64.3473 54.5097C63.7761 55.782 63.4905 57.7813 63.4905 60.5077L63.5684 65.1035C65.1263 65.0516 66.3597 65.0256 67.2685 65.0256C67.5541 65.0256 67.7488 65.0776 67.8527 65.1814C67.9825 65.2593 68.0474 65.4021 68.0474 65.6099C68.0474 65.9993 67.8397 66.1941 67.4242 66.1941L63.6073 66.233L63.6463 68.1804C63.7501 73.0619 63.8021 76.8399 63.8021 79.5143C63.8021 79.9557 63.6073 80.1764 63.2179 80.1764C62.8024 80.1764 62.5947 79.9557 62.5947 79.5143L62.361 66.3109L59.1673 66.4278C58.7258 66.4278 58.5051 66.233 58.5051 65.8435C58.5051 65.4281 58.7388 65.2204 59.2062 65.2204C59.7774 65.2204 60.8161 65.1944 62.322 65.1425L62.2831 60.5077C62.2831 57.4437 62.6726 55.1588 63.4515 53.6528C64.2565 52.1208 65.6326 51.3549 67.58 51.3549ZM76.8107 57.0023C76.3434 57.0023 75.9409 56.8465 75.6033 56.535C75.2658 56.1974 75.097 55.7949 75.097 55.3276C75.097 54.8342 75.2658 54.4188 75.6033 54.0812C75.9409 53.7177 76.3693 53.536 76.8886 53.536C77.382 53.536 77.7844 53.7047 78.096 54.0423C78.4076 54.3539 78.5634 54.7693 78.5634 55.2886C78.5634 55.8079 78.3816 56.2234 78.0181 56.535C77.6806 56.8465 77.2781 57.0023 76.8107 57.0023ZM76.1876 79.9428C75.7721 79.9428 75.5644 79.748 75.5644 79.3585L75.9539 61.3256C75.9539 60.8063 76.1616 60.5466 76.577 60.5466C76.7848 60.5466 76.9406 60.6115 77.0444 60.7413C77.1483 60.8452 77.2002 61.0399 77.2002 61.3256L76.7718 79.3196C76.7718 79.735 76.577 79.9428 76.1876 79.9428Z" fill="black"/>
<path d="M92.3601 60.3129C94.0998 60.3129 95.3721 60.8322 96.1771 61.8708C97.008 62.8835 97.4234 64.0779 97.4234 65.4541C97.4234 66.8043 97.0599 67.8299 96.3329 68.531C95.6058 69.2061 94.736 69.5436 93.7233 69.5436C93.4117 69.5436 93.191 69.5047 93.0612 69.4268C92.9574 69.3229 92.9054 69.1671 92.9054 68.9594C92.9054 68.7517 92.9574 68.6089 93.0612 68.531C93.1651 68.4271 93.3209 68.3622 93.5286 68.3362C94.3075 68.2583 94.9437 68.0506 95.437 67.7131C95.9564 67.3495 96.216 66.6095 96.216 65.493C96.216 64.4544 95.9304 63.5326 95.3592 62.7277C94.7879 61.9228 93.7753 61.5203 92.3212 61.5203C90.4257 61.5203 89.0106 62.3642 88.0759 64.0519C87.1411 65.7397 86.5569 68.1545 86.3232 71.2963C86.2193 72.6984 86.1674 74.7497 86.1674 77.4501V79.6312C86.1674 80.1764 85.9597 80.4491 85.5442 80.4491C85.3365 80.4491 85.1807 80.3842 85.0769 80.2543C84.999 80.1505 84.96 79.9557 84.96 79.6701L84.8821 71.3742C84.8561 68.6478 84.6614 65.2853 84.2979 61.2866L84.22 60.4298V60.3519C84.22 60.1701 84.2849 60.0273 84.4147 59.9234C84.5446 59.8196 84.7004 59.7676 84.8821 59.7676C85.2716 59.7676 85.4663 59.9883 85.4663 60.4298L85.8558 67.4404C86.1155 64.9737 86.8295 63.1691 87.998 62.0266C89.1924 60.8842 90.6464 60.3129 92.3601 60.3129Z" fill="black"/>
<path d="M119.541 78.8522C119.8 78.8782 119.982 78.9301 120.086 79.008C120.216 79.0599 120.281 79.2027 120.281 79.4364C120.281 79.8519 120.086 80.0596 119.697 80.0596C118.658 80.0596 117.905 79.8519 117.438 79.4364C116.996 79.021 116.672 78.255 116.464 77.1385C115.867 78.1771 115.01 78.995 113.893 79.5922C112.803 80.1635 111.465 80.4491 109.882 80.4491C107.649 80.4491 105.896 79.9298 104.624 78.8912C103.351 77.8525 102.481 76.6192 102.014 75.1911C101.547 73.763 101.313 72.3609 101.313 70.9847C101.313 69.3748 101.625 67.8169 102.248 66.3109C102.871 64.779 103.832 63.5196 105.13 62.533C106.454 61.5463 108.09 61.0529 110.037 61.0529C111.647 61.0529 112.971 61.3645 114.01 61.9877C115.075 62.6109 115.932 63.5586 116.581 64.8309L116.97 61.9877C117.022 61.728 117.074 61.5463 117.126 61.4424C117.204 61.3385 117.347 61.2866 117.554 61.2866C117.788 61.2866 117.97 61.3515 118.1 61.4814C118.255 61.5852 118.32 61.715 118.294 61.8708C118.061 63.0652 117.879 64.5063 117.749 66.1941C117.645 67.3885 117.593 68.9983 117.593 71.0236V73.6721C117.593 75.1521 117.632 76.2297 117.71 76.9048C117.788 77.5799 117.957 78.0603 118.217 78.3459C118.502 78.6315 118.944 78.8003 119.541 78.8522ZM109.687 79.2027C111.53 79.2027 113.088 78.7354 114.361 77.8006C115.659 76.8399 116.321 75.4507 116.347 73.6332C116.373 72.3089 116.386 70.79 116.386 69.0762C116.386 67.3106 116.009 65.9214 115.256 64.9088C114.529 63.8961 113.673 63.2081 112.686 62.8445C111.725 62.4551 110.842 62.2603 110.037 62.2603C108.272 62.2603 106.818 62.7537 105.675 63.7403C104.559 64.7011 103.754 65.8565 103.26 67.2067C102.767 68.5569 102.52 69.8162 102.52 70.9847C102.52 72.1272 102.715 73.3216 103.105 74.5679C103.494 75.8143 104.221 76.9048 105.286 77.8396C106.35 78.7483 107.817 79.2027 109.687 79.2027Z" fill="black"/>
<path d="M74.4747 110.628C74.4747 109.524 74.9629 108.775 75.9391 108.38C76.2413 108.263 76.5609 108.205 76.8979 108.205C77.2349 108.205 77.5487 108.263 77.8393 108.38C78.1298 108.519 78.3797 108.693 78.5889 108.903C79.0421 109.367 79.2688 109.943 79.2688 110.628C79.2688 111.698 78.7923 112.424 77.8393 112.808C77.5487 112.924 77.2349 112.982 76.8979 112.982C76.5492 112.982 76.2238 112.924 75.9217 112.808C75.6311 112.691 75.3812 112.529 75.172 112.319C74.7072 111.878 74.4747 111.314 74.4747 110.628Z" fill="black"/>
<path d="M98.9155 110.399C99.1902 110.399 99.3276 110.721 99.3276 111.365C99.3276 111.841 99.2484 112.168 99.0899 112.348C98.9314 112.528 98.8099 112.623 98.7254 112.633C98.6514 112.633 98.5035 112.644 98.2816 112.665C98.0703 112.697 97.7956 112.728 97.4575 112.76C96.5383 112.844 95.8252 112.887 95.318 112.887C94.8003 112.887 94.4675 112.866 94.3196 112.823C94.1717 112.792 94.0449 112.728 93.9393 112.633C93.7385 112.464 93.5378 112.1 93.337 111.54C92.0481 112.48 90.5319 112.95 88.7887 112.95C86.739 112.95 85.1595 112.179 84.0501 110.636C82.983 109.157 82.4495 107.118 82.4495 104.519V104.471C82.4495 101.936 83.2366 99.9336 84.8108 98.465C86.2477 97.1232 88.1019 96.4523 90.3735 96.4523C91.4406 96.4523 92.3703 96.558 93.1627 96.7693V90.3033H90.3735C90.0671 90.3033 89.861 90.0445 89.7554 89.5268C89.7343 89.3789 89.7237 89.2204 89.7237 89.0513C89.7237 88.5442 89.8663 88.2378 90.1516 88.1321C90.4369 88.0265 90.8119 87.9367 91.2768 87.8627C91.7417 87.7888 92.2277 87.7307 92.7348 87.6884C93.7068 87.6039 94.6419 87.5563 95.5399 87.5458H95.5558C95.9995 87.5458 96.2319 87.9948 96.2531 88.8928V110.399H98.9155ZM89.2166 110.51C90.5795 110.51 91.8949 109.981 93.1627 108.925V99.9231C92.2858 99.2363 91.2926 98.8929 90.1833 98.8929C88.2076 98.8929 86.8499 99.8491 86.1103 101.761C85.8356 102.49 85.6983 103.41 85.6983 104.519C85.6983 105.628 85.8092 106.563 86.0311 107.324C86.253 108.074 86.533 108.687 86.8711 109.162C87.5261 110.061 88.3079 110.51 89.2166 110.51Z" fill="black"/>
<path d="M107.521 112.95C106.391 112.95 105.397 112.739 104.542 112.316C103.686 111.894 102.962 111.302 102.37 110.541C101.187 109.009 100.595 107.002 100.595 104.519C100.595 101.92 101.398 99.8914 103.004 98.4334C104.462 97.1127 106.301 96.4523 108.519 96.4523H108.567C110.638 96.4523 112.302 97.2395 113.559 98.8137C114.764 100.314 115.366 102.258 115.366 104.646C115.366 107.308 114.626 109.379 113.147 110.858C111.752 112.253 109.877 112.95 107.521 112.95ZM105.223 100.002C104.822 100.425 104.489 101.006 104.225 101.746C103.971 102.475 103.844 103.373 103.844 104.44C103.844 105.517 103.945 106.431 104.145 107.181C104.357 107.921 104.642 108.534 105.001 109.02C105.73 110.013 106.739 110.51 108.028 110.51C109.359 110.51 110.39 109.928 111.119 108.766C111.784 107.71 112.117 106.326 112.117 104.614C112.106 101.751 111.266 99.9548 109.597 99.2258C109.09 99.0039 108.578 98.8929 108.06 98.8929C107.532 98.8929 107.024 98.9722 106.538 99.1307C106.063 99.2891 105.625 99.5797 105.223 100.002Z" fill="black"/>
<path d="M127.046 98.6869H125.572C124.473 98.6869 123.528 99.1043 122.735 99.9389C121.721 101.006 121.214 102.543 121.214 104.551C121.214 107.488 122.033 109.347 123.67 110.129C124.188 110.383 124.716 110.51 125.255 110.51C125.794 110.51 126.28 110.451 126.713 110.335C127.146 110.219 127.569 110.066 127.981 109.876C128.403 109.696 128.805 109.49 129.185 109.258L130.31 108.576C130.353 108.544 130.427 108.529 130.532 108.529C130.627 108.529 130.749 108.592 130.897 108.719C131.045 108.835 131.182 108.978 131.309 109.147C131.584 109.548 131.721 109.881 131.721 110.145C131.721 110.409 131.663 110.589 131.547 110.684C129.529 112.195 127.331 112.95 124.954 112.95C122.746 112.95 121.018 112.184 119.772 110.652C118.567 109.173 117.965 107.139 117.965 104.551C117.965 102.015 118.731 100.008 120.263 98.5284C121.7 97.1549 123.533 96.4629 125.762 96.4523C128.15 96.4629 129.803 96.9859 130.723 98.0213C131.071 98.4228 131.246 98.8507 131.246 99.305C131.246 99.7593 131.193 100.119 131.087 100.383C130.96 100.647 130.802 100.874 130.612 101.064C130.189 101.476 129.677 101.682 129.074 101.682C128.472 101.682 127.96 101.476 127.537 101.064C127.114 100.663 126.903 100.261 126.903 99.8597C126.903 99.4582 126.951 99.0673 127.046 98.6869Z" fill="black"/>
<path d="M138.076 110.51H139.883C141.351 110.51 142.339 110.061 142.846 109.162C142.994 108.888 143.068 108.587 143.068 108.259C143.068 107.932 142.989 107.652 142.83 107.419C142.682 107.176 142.445 106.954 142.117 106.754C141.621 106.447 140.791 106.12 139.629 105.771C138.477 105.412 137.601 105.105 136.998 104.852C136.396 104.588 135.873 104.276 135.429 103.917C134.521 103.156 134.066 102.11 134.066 100.779C134.066 98.8243 135.16 97.5089 137.347 96.8327C138.171 96.5791 138.985 96.4523 139.788 96.4523C140.58 96.4523 141.314 96.5052 141.99 96.6108C142.688 96.7165 143.311 96.8961 143.861 97.1497C145.118 97.7308 145.746 98.5601 145.746 99.6378V99.717C145.746 100.309 145.54 100.811 145.128 101.223C144.727 101.624 144.209 101.83 143.575 101.841C142.582 101.841 141.906 101.407 141.547 100.541C141.441 100.277 141.388 100.06 141.388 99.8914C141.388 99.7223 141.452 99.3208 141.578 98.6869H140.009C139.154 98.6869 138.52 98.8348 138.108 99.1307C137.358 99.6484 136.982 100.219 136.982 100.842C136.982 101.666 137.722 102.332 139.201 102.839L140.406 103.251C142.445 103.927 143.755 104.503 144.336 104.979C144.917 105.454 145.34 105.972 145.604 106.532C145.868 107.092 146 107.731 146 108.449C146 109.178 145.857 109.807 145.572 110.335C145.297 110.874 144.906 111.334 144.399 111.714C143.311 112.538 141.895 112.95 140.152 112.95C138.61 112.95 137.225 112.718 136 112.253C135.091 111.915 134.447 111.429 134.066 110.795C133.876 110.478 133.781 110.134 133.781 109.765C133.781 109.405 133.834 109.094 133.94 108.83C134.066 108.555 134.225 108.323 134.415 108.132C134.827 107.731 135.345 107.53 135.968 107.53C136.581 107.53 137.099 107.736 137.521 108.148C137.944 108.55 138.155 109.004 138.155 109.511V109.527C138.145 110.055 138.118 110.383 138.076 110.51Z" fill="black"/>
<path d="M74.3226 55.452C74.3226 54.3479 74.8107 53.5983 75.7869 53.2032C76.0891 53.0869 76.4087 53.0288 76.7457 53.0288C77.0828 53.0288 77.3966 53.0869 77.6871 53.2032C77.9777 53.3426 78.2275 53.517 78.4367 53.7262C78.89 54.191 79.1166 54.7663 79.1166 55.452C79.1166 56.5212 78.6401 57.2476 77.6871 57.6311C77.3966 57.7473 77.0828 57.8054 76.7457 57.8054C76.3971 57.8054 76.0717 57.7473 75.7695 57.6311C75.479 57.5149 75.2291 57.3522 75.0199 57.143C74.555 56.7014 74.3226 56.1377 74.3226 55.452Z" fill="#7700FF"/>
<path d="M74.3226 110.628C74.3226 109.524 74.8107 108.775 75.7869 108.38C76.0891 108.263 76.4087 108.205 76.7457 108.205C77.0828 108.205 77.3966 108.263 77.6871 108.38C77.9777 108.519 78.2275 108.693 78.4367 108.903C78.89 109.367 79.1166 109.943 79.1166 110.628C79.1166 111.698 78.6401 112.424 77.6871 112.808C77.3966 112.924 77.0828 112.982 76.7457 112.982C76.3971 112.982 76.0717 112.924 75.7695 112.808C75.479 112.691 75.2291 112.529 75.0199 112.319C74.555 111.878 74.3226 111.314 74.3226 110.628Z" fill="#7700FF"/>
<defs>
<filter id="filter0_d_11_19" x="24.3522" y="23.317" width="106.805" height="114.527" filterUnits="userSpaceOnUse" color-interpolation-filters="sRGB">
<feFlood flood-opacity="0" result="BackgroundImageFix"/>
<feColorMatrix in="SourceAlpha" type="matrix" values="0 0 0 0 0 0 0 0 0 0 0 0 0 0 0 0 0 0 127 0" result="hardAlpha"/>
<feOffset dy="1"/>
<feGaussianBlur stdDeviation="1"/>
<feComposite in2="hardAlpha" operator="out"/>
<feColorMatrix type="matrix" values="0 0 0 0 0 0 0 0 0 0 0 0 0 0 0 0 0 0 0.14 0"/>
<feBlend mode="normal" in2="BackgroundImageFix" result="effect1_dropShadow_11_19"/>
<feBlend mode="normal" in="SourceGraphic" in2="effect1_dropShadow_11_19" result="shape"/>
</filter>
</defs>
</svg>
